<svg xmlns="http://www.w3.org/2000/svg"  viewBox="0 0 48 48" width="48px" height="48px" clip-rule="evenodd" baseProfile="basic">
<path fill-rule="evenodd" d="M7.001,25.998v2.001h2.001v-2.001	H7.001z" clip-rule="evenodd"/>
<path fill-rule="evenodd" d="M6.002,19.998v2.001h2.001v-2.001	H6.002z" clip-rule="evenodd"/>
<path fill-rule="evenodd" d="M5.002,13.998v2.001h2.001v-2.001	H5.002z" clip-rule="evenodd"/>
<path fill-rule="evenodd" d="M8.002,6.998v2.001h2.001V6.998H8.002	z" clip-rule="evenodd"/>
<path fill-rule="evenodd" d="M37.001,6.997v2.001h2.001V6.997	H37.001z" clip-rule="evenodd"/>
<path fill-rule="evenodd" d="M39.001,12.997v2.001h2.001v-2.001	H39.001z" clip-rule="evenodd"/>
<path fill-rule="evenodd" d="M40.001,18.997v2.001h2.001v-2.001	H40.001z" clip-rule="evenodd"/>
<path fill-rule="evenodd" d="M39.001,25.998v2.001h2.001v-2.001	H39.001z" clip-rule="evenodd"/>
<path fill-rule="evenodd" d="M15.039,40.546	c-2.112-3.229-4.037-7.204-4.037-9.548v-2.579l-2.804,0.56C7.446,29.13,6.81,28.41,7.053,27.682l1.561-4.684H7.002	c-0.823,0-1.293-0.941-0.8-1.6l2.28-3.041l-2.928-1.464c-0.704-0.352-0.743-1.347-0.067-1.752l4.205-2.523L8.107,9.446	C7.742,8.717,8.362,7.878,9.166,8.013l4.836,0.805v-2.82c0-0.775,0.848-1.256,1.513-0.857l4.331,2.599l3.448-3.448	c0.391-0.391,1.024-0.391,1.415,0l3.42,3.42l2.317-1.545c0.549-0.365,1.296-0.108,1.504,0.516l0.729,2.189l5.157-0.859	c0.839-0.14,1.46,0.771,1.023,1.5l-2.271,3.784l3.609,0.721c0.781,0.156,1.073,1.124,0.511,1.688l-2.185,2.184l3.079,2.308	c0.643,0.484,0.479,1.495-0.284,1.749l-2.052,0.684l1.684,5.051c0.268,0.805-0.532,1.56-1.32,1.245l-2.627-1.049	c0,0.04,0.001,0.08,0.001,0.12v3c0,2.341-1.923,6.312-4.039,9.548c-1.901,2.908-4.767,6.452-6.961,6.452h-4.003	C19.819,46.998,16.967,43.495,15.039,40.546z" clip-rule="evenodd"/>
<path fill-rule="evenodd" d="M15.054,44.722l-0.689-1.379	l-0.509,0.509c-0.263,0.261-0.711,0.156-0.828-0.196l-0.887-2.659h-0.639c-0.276,0-0.5-0.224-0.5-0.5v-5.861l-2.929-4.881	c-0.047-0.077-0.071-0.167-0.071-0.257v-4c0-0.233,0.163-0.436,0.391-0.488l9-2c0.312-0.069,0.609,0.169,0.609,0.488v15	c0,0.055-0.009,0.108-0.027,0.159l-2,6C15.835,45.078,15.253,45.119,15.054,44.722z" clip-rule="evenodd"/>
<path fill-rule="evenodd" d="M32.947,44.722l0.689-1.379	l0.509,0.509c0.263,0.261,0.711,0.156,0.828-0.196l0.887-2.659h0.639c0.276,0,0.5-0.224,0.5-0.5v-5.861l2.929-4.881	c0.047-0.077,0.071-0.167,0.071-0.257v-4c0-0.233-0.163-0.436-0.391-0.488l-9-2c-0.312-0.069-0.609,0.169-0.609,0.488v15	c0,0.055,0.009,0.108,0.027,0.159l2,6C32.166,45.078,32.749,45.119,32.947,44.722z" clip-rule="evenodd"/>
<path fill="#fff" fill-rule="evenodd" d="M13.002,24.998l-5,1l2-6	h-3l3-4l-4-2l5-3l-2-4l6,1v-4l5,3l4-4l4,4l3-2l1,3l6-1l-3,5l5,1l-3,3l4,3l-3,1l2,6l-5-2L13.002,24.998z" clip-rule="evenodd"/>
<path fill-rule="evenodd" d="M39.63,26.927l-4.799-1.92	l-21.708,0.987l-4.925,0.985C7.446,27.13,6.81,26.41,7.053,25.682l1.561-4.684H7.002c-0.823,0-1.293-0.941-0.8-1.6l2.28-3.041	l-2.928-1.464c-0.704-0.352-0.743-1.347-0.067-1.752l4.205-2.523L8.107,7.446C7.742,6.717,8.362,5.878,9.166,6.013l4.836,0.805	v-2.82c0-0.775,0.848-1.256,1.513-0.857l4.331,2.599l3.448-3.448c0.391-0.391,1.024-0.391,1.415,0l3.42,3.42l2.317-1.545	c0.549-0.365,1.296-0.108,1.504,0.516l0.729,2.189l5.157-0.859c0.839-0.14,1.46,0.771,1.023,1.5l-2.271,3.784l3.609,0.721	c0.781,0.156,1.073,1.124,0.511,1.688l-2.185,2.184l3.079,2.308c0.643,0.484,0.479,1.495-0.284,1.749l-2.052,0.684l1.684,5.051	C41.218,26.487,40.418,27.242,39.63,26.927z M9.495,24.681l3.309-0.663c0.051-0.009,0.101-0.016,0.151-0.019l22-1	c0.143-0.007,0.285,0.017,0.417,0.071l2.999,1.2l-1.319-3.955c-0.175-0.524,0.109-1.091,0.632-1.265l1.191-0.396l-2.473-1.856	c-0.487-0.364-0.537-1.076-0.108-1.507l1.679-1.679l-3.168-0.633c-0.677-0.136-1.016-0.903-0.661-1.495l1.887-3.144l-3.864,0.644	c-0.485,0.081-0.957-0.203-1.113-0.669l-0.585-1.759l-1.911,1.275c-0.397,0.264-0.925,0.212-1.263-0.125l-3.292-3.293l-3.293,3.293	c-0.324,0.324-0.828,0.387-1.221,0.151l-3.485-2.092v2.233c0,0.619-0.556,1.088-1.165,0.987l-4.063-0.677l1.121,2.244	c0.235,0.467,0.068,1.036-0.38,1.305l-3.437,2.063l2.371,1.185c0.557,0.279,0.727,0.995,0.353,1.493l-1.8,2.4h1	c0.681,0,1.164,0.671,0.948,1.317L9.495,24.681z" clip-rule="evenodd"/>
<path fill="#fff" fill-rule="evenodd" d="M36.005,25.998	c0-2.848-0.403-5.42-2.003-8l-2,3l-2-5l-2,4l-3-5l-2,4l-2-4l-3,6l-3-4c-1.519,3-3,5.839-3,9v3c0,4,7,15,10,15h4.003c3,0,10-11,10-15	V25.998z" clip-rule="evenodd"/>
<path fill-rule="evenodd" d="M15.039,38.546	c-2.112-3.229-4.037-7.204-4.037-9.548v-3c0-3.445,1.617-6.508,3.107-9.451c0.335-0.66,1.249-0.74,1.693-0.149l2.028,2.707	l2.277-4.553c0.367-0.735,1.421-0.735,1.788,0l1.107,2.211l1.105-2.211c0.352-0.704,1.347-0.743,1.752-0.067l2.063,3.437	l1.185-2.371c0.384-0.769,1.503-0.723,1.823,0.076l1.293,3.235l0.945-1.419c0.404-0.604,1.3-0.589,1.683,0.028	c1.733,2.796,2.153,5.575,2.153,8.527v3c0,2.341-1.923,6.312-4.039,9.548c-1.901,2.908-4.767,6.452-6.961,6.452h-4.003	C19.819,44.998,16.967,41.495,15.039,38.546z M28.119,41.515c1.017-1.032,2.133-2.473,3.173-4.064	c2.137-3.269,3.712-6.796,3.712-8.453v-3c0-2.056-0.219-3.901-0.945-5.692l-0.16-0.351l-1.065,1.599	c-0.447,0.668-1.463,0.561-1.761-0.184l-1.173-2.932l-1.004,2.008c-0.352,0.704-1.347,0.743-1.752,0.067l-2.063-3.437l-1.185,2.371	c-0.367,0.735-1.421,0.735-1.788,0l-1.105-2.211l-2.107,4.211c-0.332,0.664-1.249,0.747-1.693,0.152l-2.028-2.703l-0.385,0.776	c-1.031,2.16-1.787,4.171-1.787,6.327v3c0,1.66,1.577,5.189,3.711,8.453c1.04,1.591,2.156,3.032,3.173,4.064	c1.113,1.129,1.845,1.483,2.116,1.483h4.003C26.278,42.998,27.014,42.638,28.119,41.515z" clip-rule="evenodd"/>
<path fill-rule="evenodd" d="M20.002,38.998c0-0.551,0.448-1,1-1h6	c0.551,0,1,0.449,1,1c0,0.552-0.449,1-1,1h-6C20.45,39.998,20.002,39.55,20.002,38.998z" clip-rule="evenodd"/>
<path fill-rule="evenodd" d="M25.453,35.998h-2.901	c-0.536,0-0.675,0.48-0.439,0.765c0.456,0.549,1.193,1.235,1.889,1.235s1.433-0.685,1.889-1.235	C26.127,36.478,25.989,35.998,25.453,35.998z" clip-rule="evenodd"/>
<path fill-rule="evenodd" d="M20.289,28.701	c-0.376-0.381-0.917-0.703-1.683-0.703h-2.604c-0.552,0-1-0.448-1-1c0-0.551,0.448-1,1-1h2.604c1.389,0,2.424,0.604,3.108,1.299	c0.387,0.393,0.383,1.027-0.011,1.415C21.31,29.098,20.677,29.094,20.289,28.701z" clip-rule="evenodd"/>
<path fill-rule="evenodd" d="M18.502,26.997	c0.828,0,1.501,0.673,1.501,1.501c0,0.828-0.673,1.501-1.501,1.501s-1.501-0.673-1.501-1.501	C17.001,27.67,17.674,26.997,18.502,26.997z" clip-rule="evenodd"/>
<path fill-rule="evenodd" d="M14.002,29.998	c0.804,0.399,1.947,1,3,1c1.816,0,3.355-0.449,5-1c-1.136,1.255-3.039,3-5,3C15.59,32.998,14.477,31.215,14.002,29.998z" clip-rule="evenodd"/>
<path fill-rule="evenodd" d="M15.002,34.998h4	c1.667,0,2.761-1.857,4-3c-0.683,2.053-1.867,5-4,5h-3L15.002,34.998z" clip-rule="evenodd"/>
<path fill-rule="evenodd" d="M18.282,26.858l-3.039-2.124	c-0.164-0.115-0.276-0.395-0.168-0.579c0.101-0.172,0.4-0.252,0.579-0.163l4.829,2.421L18.282,26.858z" clip-rule="evenodd"/>
<path fill-rule="evenodd" d="M26.299,28.711	c-0.393-0.388-0.397-1.021-0.011-1.415c0.683-0.693,1.72-1.299,3.109-1.299h2.604c0.551,0,1,0.449,1,1c0,0.552-0.449,1-1,1h-2.604	c-0.764,0-1.309,0.323-1.684,0.703C27.326,29.094,26.693,29.098,26.299,28.711z" clip-rule="evenodd"/>
<path fill-rule="evenodd" d="M29.502,26.997	c-0.828,0-1.501,0.673-1.501,1.501c0,0.828,0.673,1.501,1.501,1.501s1.501-0.673,1.501-1.501	C31.003,27.67,30.33,26.997,29.502,26.997z" clip-rule="evenodd"/>
<path fill-rule="evenodd" d="M29.722,26.858l3.039-2.124	c0.164-0.115,0.276-0.395,0.168-0.579c-0.101-0.172-0.4-0.252-0.579-0.163l-4.829,2.421L29.722,26.858z" clip-rule="evenodd"/>
<path fill-rule="evenodd" d="M20.002,42.486v-3.371	c0-0.275,0.224-0.5,0.5-0.5c0.275,0,0.5,0.225,0.5,0.5v3.371c0,0.276-0.225,0.5-0.5,0.5C20.226,42.986,20.002,42.762,20.002,42.486z" clip-rule="evenodd"/></svg>